# xmcd
#
# Track frame offsets: 
#        150
#        18667
#        36793
#        56934
#        75755
#        93575
#        112423
#        131051
#        152235
#        171486
#        188096
#
# Disc length: 2752 seconds
#
# Revision: 0
# Processed by: cddbd v1.5.2PL0 Copyright (c) Steve Scherf et al.
# Submitted via: ExactAudioCopy v1.3
#
DISCID=980abe0b
DTITLE=Cliff Stevens - Nobody But You
DYEAR=2019
DGENRE=Blues Rock
TTITLE0=Nobody But You
TTITLE1=Say What You Mean
TTITLE2=Little By Little
TTITLE3=Morning Rain
TTITLE4=World Of Worry
TTITLE5=Cry Baby
TTITLE6=Bad Luck
TTITLE7=Keep My Love Alive
TTITLE8=Truth Don't Lie
TTITLE9=Come Back
TTITLE10=How Long
EXTD=
EXTT0=
EXTT1=
EXTT2=
EXTT3=
EXTT4=
EXTT5=
EXTT6=
EXTT7=
EXTT8=
EXTT9=
EXTT10=
PLAYORDER=
